<?xml version="1.0" encoding="UTF-8"?>
<svg width="18px" height="16px" viewBox="0 0 18 16" version="1.1" xmlns="http://www.w3.org/2000/svg" xmlns:xlink="http://www.w3.org/1999/xlink">
    <!-- Generator: Sketch 52.4 (67378) - http://www.bohemiancoding.com/sketch -->
    <title>Star</title>
    <desc>Created with Sketch.</desc>
    <g id="Page-1" stroke="none" stroke-width="1" fill="none" fill-rule="evenodd" stroke-linejoin="round">
        <g id="我的" transform="translate(-304.000000, -270.000000)" fill="#47CDFD" stroke="#27CBFF" stroke-width="0.5">
            <g id="bg">
                <g id="02" transform="translate(193.000000, 146.000000)">
                    <path d="M122.709665,130.061473 C122.429199,130.062949 122.179319,129.892005 122.08967,129.637332 L120.644994,125.424638 C120.554289,125.170647 120.305135,125 120.025,125 C119.744864,125 119.49571,125.170647 119.405005,125.424638 L117.960329,129.637332 C117.87068,129.892005 117.6208,130.062949 117.340334,130.061473 L112.650328,130.061473 C112.371667,130.05548 112.121402,130.224062 112.032933,130.477357 C111.944464,130.730652 112.038406,131.009636 112.264685,131.165603 L116.07068,133.786064 C116.295555,133.939104 116.390496,134.214467 116.305032,134.465769 L114.854423,138.697225 C114.79208,138.88598 114.8283,139.091951 114.951752,139.250702 C115.075204,139.409454 115.270812,139.501601 115.477384,139.498316 C115.615137,139.497701 115.74913,139.455198 115.86006,139.37693 L119.639357,136.775231 C119.870002,136.617184 120.179997,136.617184 120.410642,136.775231 L124.189939,139.37693 C124.300869,139.455198 124.434863,139.497701 124.572615,139.498316 C124.779187,139.501601 124.974795,139.409454 125.098247,139.250702 C125.221699,139.091951 125.257919,138.88598 125.195576,138.697225 L123.744967,134.465769 C123.659503,134.214467 123.754445,133.939104 123.979319,133.786064 L127.785314,131.165603 C128.011593,131.009636 128.105536,130.730652 128.017066,130.477357 C127.928597,130.224062 127.678333,130.05548 127.399672,130.061473 L122.709665,130.061473 Z" id="Star"></path>
                </g>
            </g>
        </g>
    </g>
</svg>