<?xml version="1.0" encoding="UTF-8"?>
<svg width="22px" height="20px" viewBox="0 0 22 20" version="1.1" xmlns="http://www.w3.org/2000/svg" xmlns:xlink="http://www.w3.org/1999/xlink">
    <!-- Generator: Sketch 52.4 (67378) - http://www.bohemiancoding.com/sketch -->
    <title>Star</title>
    <desc>Created with Sketch.</desc>
    <g id="Page-1" stroke="none" stroke-width="1" fill="none" fill-rule="evenodd" stroke-linejoin="round">
        <g id="主页_收藏框" transform="translate(-306.000000, -300.000000)" stroke="#27CBFF" stroke-width="0.5">
            <g id="02" transform="translate(192.000000, 146.000000)">
                <path d="M128.345378,161.2839 C127.995887,161.285733 127.684511,161.073504 127.572799,160.757323 L125.772579,155.527195 C125.659551,155.211862 125.349079,155 125,155 C124.650921,155 124.340449,155.211862 124.227421,155.527195 L122.427201,160.757323 C122.315489,161.073504 122.004113,161.285733 121.654622,161.2839 L115.810377,161.2839 C115.463136,161.276461 115.15128,161.485757 115.041038,161.800227 C114.930796,162.114697 115.047858,162.461061 115.329826,162.654696 L120.072499,165.908041 C120.352716,166.098042 120.471023,166.439911 120.364526,166.751906 L118.556914,172.005327 C118.479228,172.23967 118.524362,172.495385 118.678196,172.692478 C118.83203,172.889571 119.075778,173.003973 119.333189,172.999895 C119.504843,172.999131 119.671813,172.946362 119.810044,172.849192 L124.519449,169.619141 C124.806857,169.422922 125.193143,169.422922 125.480551,169.619141 L130.189956,172.849192 C130.328187,172.946362 130.495157,172.999131 130.666811,172.999895 C130.924222,173.003973 131.16797,172.889571 131.321804,172.692478 C131.475638,172.495385 131.520772,172.23967 131.443086,172.005327 L129.635474,166.751906 C129.528977,166.439911 129.647284,166.098042 129.927501,165.908041 L134.670174,162.654696 C134.952142,162.461061 135.069204,162.114697 134.958962,161.800227 C134.84872,161.485757 134.536864,161.276461 134.189623,161.2839 L128.345378,161.2839 Z" id="Star"></path>
            </g>
        </g>
    </g>
</svg>