<?xml version="1.0" encoding="UTF-8"?>
<svg width="37px" height="32px" viewBox="0 0 37 32" version="1.1" xmlns="http://www.w3.org/2000/svg" xmlns:xlink="http://www.w3.org/1999/xlink">
    <!-- Generator: Sketch 52.4 (67378) - http://www.bohemiancoding.com/sketch -->
    <title>二手交易</title>
    <desc>Created with Sketch.</desc>
    <g id="Page-1" stroke="none" stroke-width="1" fill="none" fill-rule="evenodd">
        <g id="主页" transform="translate(-284.000000, -594.000000)">
            <g id="二手交易" transform="translate(284.000000, 594.000000)">
                <g>
                    <text font-family="PingFangSC-Medium, PingFang SC" font-size="8" font-weight="400" letter-spacing="0.8888889" fill="#959595">
                        <tspan x="1.2222222" y="31">二手交易</tspan>
                    </text>
                    <g stroke="#959595">
                        <rect id="Rectangle" stroke-width="1.4" x="0.7" y="0.7" width="35.6" height="16.6" rx="4"></rect>
                        <polyline id="Path-5" stroke-linecap="round" points="15 4 18.5252869 7 22 4"></polyline>
                        <path d="M16,7.5 L21,7.5" id="Path-6" stroke-linecap="round"></path>
                        <path d="M16,10.5 L21,10.5" id="Path-7" stroke-linecap="round"></path>
                        <path d="M18.6629297,8.36478936 L18.6629297,13.6431857" id="Line" stroke-linecap="round"></path>
                        <path d="M1,4 C3.76142375,4 6,6.46243388 6,9.5 C6,12.5375661 3.76142375,15 1,15 L1,4 Z" id="Combined-Shape" stroke-width="1.2"></path>
                        <path d="M31,4 C33.7614237,4 36,6.46243388 36,9.5 C36,12.5375661 33.7614237,15 31,15 L31,4 Z" id="Combined-Shape" stroke-width="1.2" transform="translate(33.500000, 9.500000) scale(-1, 1) translate(-33.500000, -9.500000) "></path>
                    </g>
                </g>
            </g>
        </g>
    </g>
</svg>