<?xml version="1.0" encoding="UTF-8"?>
<svg width="20px" height="18px" viewBox="0 0 20 18" version="1.1" xmlns="http://www.w3.org/2000/svg" xmlns:xlink="http://www.w3.org/1999/xlink">
    <!-- Generator: Sketch 52.4 (67378) - http://www.bohemiancoding.com/sketch -->
    <title>已收藏</title>
    <desc>Created with Sketch.</desc>
    <g id="Page-1" stroke="none" stroke-width="1" fill="none" fill-rule="evenodd">
        <g id="我的" transform="translate(-34.000000, -344.000000)" stroke="#616161">
            <g id="Group" transform="translate(0.000000, 285.000000)">
                <g id="已收藏" transform="translate(34.000000, 57.000000)">
                    <path d="M13.3798702,8.60878938 C12.8236503,8.61105051 12.3202416,8.27799837 12.1330334,7.76413898 L10.3305233,2.68585796 C10.2914769,2.58022275 10.1702421,2.5 10.0249996,2.5 C9.87975718,2.5 9.75852238,2.58022275 9.72168607,2.67975732 L7.91555741,7.76805506 C7.72959913,8.2784335 7.22549612,8.61161443 6.67125869,8.60878938 L0.802017474,8.60868151 C0.663502479,8.60580379 0.547236265,8.68146995 0.511356676,8.78071792 C0.480351721,8.86648198 0.513881024,8.96268378 0.60757569,9.02507738 L5.35987694,12.1862885 C5.82984907,12.4953011 6.03384688,13.0669328 5.84915261,13.5916214 L4.0389235,18.6931852 C4.01688133,18.7576626 4.02951577,18.8270774 4.07689379,18.8859397 C4.13311988,18.9557948 4.23022028,18.9999877 4.34186413,18.998303 C4.41489162,18.9979878 4.48485013,18.9765482 4.54517147,18.9354686 L9.26723487,15.7948404 C9.722696,15.4933091 10.3273032,15.4933091 10.7836499,15.7954281 L15.5095555,18.938652 C15.5651491,18.9765482 15.6351076,18.9979878 15.7136579,18.9983573 C15.819779,18.9999877 15.9168794,18.9557948 15.9731054,18.8859397 C16.0204835,18.8270774 16.0331179,18.7576626 16.0129785,18.6986476 L14.2004279,13.5904367 C14.0161524,13.0669328 14.2201502,12.4953011 14.6878936,12.1877625 L19.442213,9.02521751 C19.5361182,8.96268378 19.5696475,8.86648198 19.5386426,8.78071792 C19.502763,8.68146995 19.3864968,8.60580379 19.2375962,8.60878938 L13.3798702,8.60878938 Z"></path>
                </g>
            </g>
        </g>
    </g>
</svg>