<?xml version="1.0" encoding="UTF-8"?>
<svg width="18px" height="16px" viewBox="0 0 18 16" version="1.1" xmlns="http://www.w3.org/2000/svg" xmlns:xlink="http://www.w3.org/1999/xlink">
    <!-- Generator: Sketch 52.4 (67378) - http://www.bohemiancoding.com/sketch -->
    <title>首页</title>
    <desc>Created with Sketch.</desc>
    <g id="Page-1" stroke="none" stroke-width="1" fill="none" fill-rule="evenodd">
        <g id="我的" transform="translate(-35.000000, -298.000000)" stroke="#616161">
            <g id="Group" transform="translate(0.000000, 285.000000)">
                <g id="首页" transform="translate(36.000000, 10.000000)">
                    <g transform="translate(0.000000, 3.000000)">
                        <path d="M7,15 L7,11 C7,10.4477153 7.44771525,10 8,10 L8,10 C8.55228475,10 9,10.4477153 9,11 L9,15" id="Path-6"></path>
                        <path d="M3,10.407636 L3,8 L0.384807849,8 L7.3339804,0.840982633 C7.7186535,0.444693528 8.35174845,0.435276892 8.74803755,0.819949987 C8.75515232,0.826856208 8.76216398,0.833867865 8.7690702,0.840982633 L15.7182428,8 L13.0456249,8 L13.0456249,10.407636 C13.0456249,13.1816587 10.7968351,15.4304484 8.02281244,15.4304484 L8.02281244,15.4304484 C5.24878973,15.4304484 3,13.1816587 3,10.407636 Z" id="Path-5" stroke-linejoin="round"></path>
                    </g>
                </g>
            </g>
        </g>
    </g>
</svg>